/* XPM */
static char *icon6_xpm[] = {
/* width height ncolors chars_per_pixel */
"16 16 6 1",
/* colors */
"` c #000000",
"a c #C0C0C0",
"b c #808080",
"c c #FFFFFF",
"d c #FFFF00",
"e c #808000",
/* pixels */
"cccccccccccccccc",
"cabbbbbbbbaccccc",
"cb````````bccccc",
"cb`dddddd`bccccc",
"cb`dddddd`bbaccc",
"cb`dddddd```bacc",
"cb`dddddd`dd`bcc",
"cb`dddddd`dd`bac",
"cb`dddddd`ddd`bc",
"cb````````ddd`bc",
"cabbb`ddddddebac",
"cccab`dddddd`bcc",
"ccccab``dde`bacc",
"cccccabb``bbaccc",
"cccccccabbaccccc",
"cccccccccccccccc"
};
