/* XPM */
static char *icon5_xpm[] = {
/* width height ncolors chars_per_pixel */
"16 16 5 1",
/* colors */
"` c #000000",
"a c #C0C0C0",
"b c #FFFFFF",
"c c #FFFF00",
"d c #808000",
/* pixels */
"bbbbbbbbbbbbbbbb",
"bbbbdbbbbbbbdbbb",
"dbbbbd````bdbbbb",
"bdbbb`bbcb`bbbbb",
"bbdd`bbcccb`bbbb",
"bbbb`bcbcbc`dddd",
"bbbb`cccbcb`bbbb",
"bbdd`ccccbc`dbbb",
"ddbb`bccccc`bddb",
"bbbbb`bccb`bbbbd",
"bbbbdb````bbdbbb",
"bbbdbb````bbbdbb",
"bbbdbb````bbbdbb",
"bbdbbb````bbbbdb",
"bbbbbba``abbbbbb",
"bbbbbbbbbbbbbbbb"
};
