/* XPM */
static char *icon9_xpm[] = {
/* width height ncolors chars_per_pixel */
"16 16 5 1",
/* colors */
"` c #000000",
"a c #C0C0C0",
"b c #808080",
"c c #000080",
"d c #FFFFFF",
/* pixels */
"dddddddddddddddd",
"dddddacccccadddd",
"ddddacccccccaddd",
"dddacccbdacccddd",
"dddacccddacccddd",
"dddabcbddacccddd",
"ddddddddacccaddd",
"dddddddacccaaddd",
"ddddddaacccadddd",
"ddddddacccaddddd",
"ddddddabcbaddddd",
"dddddddddddddddd",
"dddddddb`bdddddd",
"ddddddacccaddddd",
"dddddddbcbdddddd",
"dddddddddddddddd"
};
