/* XPM */
static char *wxsgv[] = {
/* width height num_colors chars_per_pixel */
"    32    32        9            1",
/* colors */
". c #000000",
"# c #000080",
"a c #0000ff",
"b c #008000",
"c c #00ff00",
"d c #808000",
"e c #808080",
"f c #ffff00",
"g c #ffffff",
/* pixels */
"gggggggggggggggggggggggggggggggg",
"ggggd....dgggggggggggggggggggggg",
"ggd.ffffffddgggggggggggggggggggg",
"gd.ffffffffddggggggggggggggggggg",
"g.fffd..dfffdggggggggggggggggggg",
"ddffddggdddfddgggggggggggggggggg",
".ffddggggddffdgggggggggggggggggg",
".ff.gggggg.dfdgggggggggggggggggg",
".ff.gggggg.dfdgggggggggggggggggg",
".ffddgggg.ddfdgggggggggggggggggg",
"ddffddgg..dffdgggggggggggggggggg",
"g.ffdd..ddffdggggggggggggggggggg",
"ggdfffdddffdgggggggggggggggggggg",
"gggdffffffdggggggggggggggggggggg",
"ggggddddddgggggggggggggggggggggg",
"gggggggggggggggggggggggggggggggg",
"gggggggeggggggggggggggg.gggggggg",
"gggggggggggggggggggggg...ggggggg",
"gggggggeggggggggggggg.b..egggggg",
"gggggggggggggggggggg.cc.##gggggg",
"gggeeeeeeeeeggggggg.ccc.#a#ggggg",
"gggegggggggegggggg.cccc.#aa#gggg",
"gggeggg.gggeggggg.ccccc#aaa#eggg",
"gggeggg.gggegggg.bccccb#aaaa#ggg",
"gggeg.....gegegeebccccb#aaaaa#gg",
"gggeggg.gggeggggg.ccccb#aaaaaa#g",
"gggeggg.gggeggggggbccc.aaaaaaa#e",
"gggegggggggegggggggbcc.aaaaaaa#.",
"gggeeeeeeeeegggggggebc.aaa#####g",
"gggggggggggggggggggg.c.###eggggg",
"gggggggggggggggggggggb.egggggggg",
"gggggggggggggggggggggggggggggggg"
};
